<?xml version="1.0" encoding="UTF-8"?>
<svg width="143px" height="32px" viewBox="0 0 143 32" version="1.1" xmlns="http://www.w3.org/2000/svg" xmlns:xlink="http://www.w3.org/1999/xlink">
    <title>AL-logo</title>
    <g id="页面-1" stroke="none" stroke-width="1" fill="none" fill-rule="evenodd">
        <g id="01初版" transform="translate(-16.000000, -8.000000)">
            <g id="AL-logo" transform="translate(16.000000, 8.000000)">
                <g id="logo-字" transform="translate(44.000000, 2.000000)" fill="#2222FF">
                    <path d="M7.00394379,0 L13.0039438,12 L11.5039438,12 L6.50394379,2 L1.50394379,12 L0,11.9867725 L6.00394379,0 L7.00394379,0 Z M14.4994117,4.54747351e-13 L23.4999487,10 L23.4999487,4.54747351e-13 L25.005565,4.54747351e-13 L25.005565,12 L23.4999487,12 L14.4994117,2 L14.4994117,6.67307094 L13.0039438,8 L13.0039438,4.54747351e-13 L14.4994117,4.54747351e-13 Z M39.0039438,0 L39.0039438,1.49549105 L33.7539438,1.49549105 L33.7539438,10.5080206 L32.2539438,12 L32.2539438,1.49549105 L27.0039438,1.49549105 L27.0996493,0 L39.0039438,0 Z M44.0039438,0 L50.0039438,12 L48.5039438,12 L43.5039438,2 L38.5039438,12 L37,11.9867725 L43.0039438,0 L44.0039438,0 Z M91.0078876,0 L92.0078876,0 L98.0078876,12 L96.5078876,12 L91.5078876,2 L86.5078876,12 L85.0039438,11.9867725 L91.0078876,0 Z M52.0039438,0 L53.5034712,1.5 L53.5034712,10.5 L59.5039438,10.5 L61.0039438,12 L52.0039438,12 L52.0039438,0 Z M63.0039438,0 L67.2539438,0 C69.3250116,-3.80448985e-16 71.0039438,1.67893219 71.0039438,3.75 C71.0039438,5.82106781 69.3250116,7.5 67.2539438,7.5 L67.0039438,7.5 L67.0039438,7.5 L65.5037783,6 L67.2539438,6 C68.4965845,6 69.5039438,4.99264069 69.5039438,3.75 C69.5039438,2.50735931 68.4965845,1.5 67.2539438,1.5 L64.503425,1.5 L64.503425,1.5 L64.503425,12 L63.0039438,12 L63.0039438,0 Z M73.0039438,0 L74.5034712,1.5 L74.5034712,5.25 L81.5039438,5.25 L81.5039438,0 L83.0039438,1.5 L83.0039438,12 L81.5039438,10.5 L81.5039438,6.75 L74.5039438,6.75 L74.5039438,12 L73.0039438,10.5 L73.0039438,0 Z" id="形状结合"></path>
                    <path d="M20,20 L20.999685,21 L20.999685,27 L25,27 L26,28 L20,28 L20,20 Z M27.3333333,20 L28.3376736,21.0093316 L28.3376736,28 L27.3333333,27.0021701 L27.3333333,20 Z M46.6666667,20 L47.6710069,21.0093316 L47.6710069,28 L46.6666667,27.0021701 L46.6666667,20 Z M57.3333333,20 L58.3376736,21.0093316 L58.3376736,28 L57.3333333,27.0021701 L57.3333333,20 Z M60.0638037,20 L68,20 L68,20.996994 L64.5,20.996994 L64.5,27.0053471 L63.5,28 L63.5,20.996994 L60,20.996994 L60.0638037,20 Z M73.164388,24.6666667 L73.164388,28 L74.1676432,27.1660156 L74.1676432,24.6666667 L78,20 L76.6666667,20 L73.6653521,23.6686198 L70.6666667,20 L69.3307041,20.0088183 L73.164388,24.6666667 Z M49.3333333,20 L52,20 C54.209139,20 56,21.790861 56,24 L56,24.0707465 C56,26.2408133 54.2408133,28 52.0707465,28 L52.0707465,28 L52.0707465,28 L51,26.999566 L52.000217,26.999566 C53.6569514,26.999566 55,25.6565174 55,23.999783 C55,22.3430486 53.6569514,21 52.000217,21 L50.3329875,21 L50.3329875,21 L50.3329875,28 L49.3333333,28 L49.3333333,20 Z M38.6666667,20 L39.6663516,21 L39.6663516,24.7335664 C39.6663516,26.0223179 40.7110911,27.0670573 41.9998425,27.0670573 C43.2885939,27.0670573 44.3333333,26.0223179 44.3333333,24.7335664 L44.3333333,20 L44.3333333,20 L45.3333333,21 L45.3333333,24.6666667 C45.3333333,26.5076158 43.8409492,28 42,28 C40.1590508,28 38.6666667,26.5076158 38.6666667,24.6666667 L38.6666667,20 L38.6666667,20 Z M33.3333333,20 C31.4923842,20 30,21.4923842 30,23.3333333 L30,24 C30,26.209139 31.790861,28 34,28 L35.9292535,28 L35.9292535,28 L35,26.999566 L33.999783,26.999566 C32.3430486,26.999566 31,25.6565174 31,23.999783 L31,23.3335063 C31,22.0447463 32.0447463,21 33.3335063,21 C34.6222662,21 35.6670125,22.0447463 35.6670125,23.3335063 L35.6670125,24.9970703 L35.6670125,24.9970703 L34.6666667,24 L34.6666667,25.3333333 L37.3333333,28 L37.3333333,26.6666667 L36.6666667,26 L36.6666667,23.3333333 C36.6666667,21.4923842 35.1742825,20 33.3333333,20 Z" id="形状结合"></path>
                    <rect id="矩形" x="0" y="24" width="16" height="1"></rect>
                    <rect id="矩形" x="82" y="24" width="16" height="1"></rect>
                </g>
                <g id="编组-18">
                    <rect id="矩形" fill="#2222FF" x="0" y="0" width="32" height="32" rx="4"></rect>
                    <path d="M14.5031762,10 L3.00305176,15.5006104 L3.00305176,16.5 L14.5031762,22 L14.5031762,20 L6.50070613,16 L14.5031762,12 L14.5031762,10 Z M17.5029273,10 L29.0030518,15.5006104 L29.0030518,16.5 L17.5029273,22 L17.5029273,20 L25.5053974,16 L17.5029273,12 L17.5029273,10 Z" id="形状结合" fill="#FFFFFF"></path>
                </g>
            </g>
        </g>
    </g>
</svg>